<svg width="40" height="40" viewBox="0 0 40 40" fill="none" xmlns="http://www.w3.org/2000/svg">
<path d="M13.3211 23.5575H15.2402V29.5379C15.2398 29.5812 15.248 29.624 15.2643 29.6641C15.2806 29.7041 15.3047 29.7405 15.3351 29.7712C15.3655 29.8019 15.4018 29.8263 15.4417 29.8429C15.4816 29.8596 15.5244 29.8681 15.5676 29.8681H17.2412C17.2844 29.8681 17.3272 29.8596 17.3671 29.8429C17.4071 29.8263 17.4433 29.8019 17.4737 29.7712C17.5041 29.7405 17.5282 29.7041 17.5445 29.6641C17.5608 29.624 17.569 29.5812 17.5686 29.5379V20.3994C17.569 20.3563 17.5608 20.3136 17.5444 20.2737C17.5281 20.2338 17.504 20.1976 17.4735 20.1671C17.4431 20.1366 17.4068 20.1125 17.3669 20.0962C17.327 20.0799 17.2843 20.0717 17.2412 20.072H15.8047C15.7178 20.072 15.6346 20.1065 15.5732 20.1679C15.5118 20.2293 15.4773 20.3126 15.4773 20.3994C15.4695 20.4954 15.4506 20.5901 15.4208 20.6816C15.3688 20.8753 15.2722 21.0541 15.1386 21.2038C14.9462 21.4006 14.6979 21.5336 14.4274 21.5848C14.0541 21.6474 13.6769 21.6832 13.2985 21.692C13.2144 21.6942 13.1344 21.729 13.0754 21.789C13.0165 21.849 12.9831 21.9296 12.9824 22.0138V23.233C12.9828 23.2767 12.9919 23.3199 13.0092 23.36C13.0265 23.4002 13.0517 23.4365 13.0833 23.4667C13.1148 23.497 13.1521 23.5206 13.193 23.5362C13.2338 23.5518 13.2774 23.559 13.3211 23.5575V23.5575ZM13.6485 22.3214C13.9601 22.3095 14.2705 22.2746 14.577 22.217C14.9744 22.1394 15.3387 21.9425 15.6212 21.6525C15.8244 21.4265 15.9714 21.1558 16.0502 20.8623C16.0502 20.8171 16.0728 20.7776 16.0841 20.7353H16.9025V29.2105H15.8837V23.2302C15.8837 23.1433 15.8492 23.0601 15.7878 22.9987C15.7264 22.9373 15.6431 22.9028 15.5563 22.9028H13.6485V22.3214Z" fill="#0974D6"/>
<path d="M17.2302 29.9952H15.5566C15.4361 29.9952 15.3205 29.9473 15.2353 29.8621C15.1501 29.7769 15.1022 29.6613 15.1022 29.5408V23.6846H13.3213C13.2008 23.6846 13.0852 23.6367 13 23.5515C12.9148 23.4663 12.8669 23.3507 12.8669 23.2302V22.0138C12.8661 21.8962 12.9109 21.7828 12.992 21.6975C13.0731 21.6122 13.184 21.5617 13.3016 21.5566C13.6724 21.5472 14.0421 21.5113 14.4079 21.4493C14.6542 21.4038 14.8802 21.2824 15.0542 21.1022C15.171 20.9674 15.2542 20.8069 15.2969 20.6337C15.3234 20.557 15.3404 20.4774 15.3477 20.3966C15.3492 20.2764 15.398 20.1615 15.4836 20.077C15.5692 19.9925 15.6846 19.9451 15.8049 19.9451H17.2161C17.276 19.9447 17.3354 19.9562 17.3908 19.9789C17.4463 20.0015 17.4967 20.0349 17.5392 20.0772C17.5817 20.1194 17.6154 20.1696 17.6384 20.2249C17.6614 20.2802 17.6733 20.3396 17.6733 20.3995V29.5408C17.6733 29.6594 17.627 29.7733 17.5442 29.8582C17.4614 29.9431 17.3487 29.9922 17.2302 29.9952V29.9952ZM15.819 20.2019C15.7664 20.2019 15.7158 20.2226 15.6783 20.2596C15.6408 20.2966 15.6194 20.3468 15.6187 20.3995C15.6113 20.504 15.5914 20.6073 15.5594 20.7071C15.5025 20.9161 15.3982 21.1093 15.2546 21.2715C15.0447 21.489 14.7726 21.6359 14.4756 21.6921C14.0957 21.7545 13.7119 21.7903 13.327 21.7993C13.2758 21.8022 13.2277 21.8246 13.1925 21.8618C13.1574 21.8991 13.1378 21.9484 13.1379 21.9997V23.2189C13.1379 23.2713 13.1587 23.3216 13.1957 23.3586C13.2328 23.3957 13.283 23.4165 13.3354 23.4165H15.3731V29.5295C15.3731 29.5819 15.3939 29.6322 15.431 29.6692C15.468 29.7063 15.5183 29.7271 15.5707 29.7271H17.2443C17.2969 29.7271 17.3475 29.7064 17.385 29.6694C17.4225 29.6324 17.4439 29.5822 17.4447 29.5295V20.3995C17.4439 20.3468 17.4225 20.2966 17.385 20.2596C17.3475 20.2226 17.2969 20.2019 17.2443 20.2019H15.819ZM17.0326 29.3517H15.7569V23.2302C15.7569 23.1771 15.7358 23.1261 15.6983 23.0885C15.6607 23.0509 15.6097 23.0298 15.5566 23.0298H13.5217V22.2001H13.6402C13.9451 22.1884 14.2488 22.1554 14.549 22.1013C14.9208 22.0215 15.2601 21.8317 15.5227 21.5566C15.7117 21.346 15.8481 21.0935 15.9206 20.82C15.9206 20.7776 15.9432 20.7353 15.9545 20.6986L15.9771 20.5998H17.027L17.0326 29.3517ZM16.0138 29.0949H16.7758V20.8567H16.1831V20.8905C16.0994 21.2054 15.9416 21.4956 15.7231 21.7372C15.4242 22.0488 15.0372 22.2615 14.6139 22.3468C14.3412 22.4006 14.0647 22.4336 13.787 22.4456V22.7786H15.565C15.6861 22.7794 15.8019 22.8278 15.8875 22.9134C15.9731 22.999 16.0215 23.1148 16.0222 23.2358L16.0138 29.0949Z" fill="#0974D6"/>
<path d="M19.4991 29.1709C20.163 29.7012 20.9953 29.9756 21.8444 29.9442C23.0185 29.9442 23.9188 29.5716 24.5228 28.8322C25.0969 28.1402 25.4078 27.2675 25.4005 26.3683C25.4005 25.3072 25.0816 24.4802 24.4522 23.913C23.8572 23.3613 23.0735 23.0583 22.2621 23.0663C21.9003 23.0569 21.5398 23.1133 21.1981 23.2328C21.1501 23.2497 21.0993 23.2723 21.0429 23.2977L21.1304 22.2309H24.122C24.2088 22.2309 24.2921 22.1964 24.3535 22.135C24.4149 22.0736 24.4494 21.9903 24.4494 21.9035V20.3823C24.4494 20.2955 24.4149 20.2122 24.3535 20.1508C24.2921 20.0894 24.2088 20.0549 24.122 20.0549H19.2254C19.1438 20.0576 19.0662 20.0906 19.0077 20.1475C18.9493 20.2044 18.9141 20.2811 18.9093 20.3626L18.5565 25.4003C18.5533 25.4442 18.5589 25.4882 18.5729 25.5299C18.587 25.5716 18.6092 25.6101 18.6383 25.643C18.6677 25.6756 18.7033 25.7019 18.7431 25.7203C18.7828 25.7388 18.8259 25.7489 18.8697 25.7503L20.6591 25.8265C20.7212 25.829 20.7828 25.8139 20.8367 25.7829C20.8906 25.7519 20.9347 25.7064 20.9639 25.6515C21.0536 25.4641 21.214 25.32 21.4098 25.2507C21.5587 25.2046 21.714 25.1827 21.8698 25.1858C22.0126 25.1716 22.1565 25.1951 22.2873 25.2541C22.418 25.313 22.531 25.4053 22.6149 25.5217C22.8072 25.8177 22.9055 26.165 22.8971 26.5179C22.9129 26.8674 22.8138 27.2123 22.6149 27.5001C22.5289 27.6158 22.4149 27.7076 22.2835 27.7668C22.1521 27.8261 22.0078 27.8509 21.8642 27.8387C21.7482 27.8485 21.6314 27.8342 21.5212 27.7969C21.411 27.7595 21.3096 27.6997 21.2235 27.6214C21.0405 27.4135 20.9227 27.1564 20.8848 26.882C20.874 26.8042 20.8355 26.7328 20.7765 26.681C20.7174 26.6292 20.6417 26.6004 20.5631 26.5998H18.7794C18.7342 26.5996 18.6895 26.6089 18.648 26.6269C18.6065 26.6449 18.5692 26.6713 18.5385 26.7045C18.5077 26.7376 18.4842 26.7768 18.4693 26.8195C18.4544 26.8622 18.4485 26.9075 18.4521 26.9526C18.4631 27.3747 18.5618 27.79 18.7421 28.1719C18.9224 28.5538 19.1802 28.894 19.4991 29.1709V29.1709ZM20.3035 27.2658C20.3791 27.5645 20.5274 27.8399 20.7353 28.0673C20.8831 28.2132 21.0601 28.326 21.2547 28.3985C21.4493 28.471 21.657 28.5015 21.8642 28.4879C22.1098 28.4998 22.3545 28.4512 22.577 28.3464C22.7994 28.2416 22.9927 28.0837 23.1398 27.8867C23.423 27.4856 23.5676 27.003 23.5519 26.5123C23.5659 26.0298 23.4331 25.5544 23.1709 25.1491C23.0283 24.943 22.8349 24.7773 22.6094 24.668C22.3839 24.5587 22.134 24.5096 21.8839 24.5254C21.6541 24.5221 21.4253 24.5564 21.2066 24.627C20.9233 24.726 20.6784 24.9116 20.5067 25.1576L19.2338 25.1181L19.533 20.7238H23.7946V21.5902H20.834C20.7519 21.5907 20.673 21.622 20.6129 21.6779C20.5528 21.7339 20.5159 21.8104 20.5095 21.8922L20.3458 23.8847C20.3405 23.9457 20.3525 24.0069 20.3804 24.0614C20.4084 24.1158 20.4512 24.1612 20.5038 24.1924C20.5556 24.2256 20.6159 24.2432 20.6774 24.2432C20.7389 24.2432 20.7992 24.2256 20.851 24.1924C21.0334 24.0649 21.2282 23.9562 21.4324 23.8678C21.7051 23.7768 21.9917 23.7347 22.279 23.7436C22.928 23.7343 23.5553 23.9771 24.0289 24.421C24.5228 24.8669 24.7626 25.5104 24.7626 26.3966C24.7705 27.1457 24.5091 27.8728 24.026 28.4455C23.5462 29.0326 22.8379 29.3176 21.8557 29.3176C21.1601 29.3508 20.4761 29.1301 19.9309 28.6967C19.5096 28.3368 19.2354 27.8346 19.1604 27.2856L20.3035 27.2658Z" fill="#0974D6"/>
<path d="M21.8447 30.0741C20.9654 30.1057 20.104 29.8202 19.4175 29.2697C19.0862 28.9835 18.8179 28.6314 18.6299 28.2359C18.4419 27.8404 18.3382 27.4101 18.3253 26.9724C18.3207 26.9099 18.329 26.8472 18.3497 26.7881C18.3704 26.729 18.4032 26.6748 18.4458 26.629C18.4885 26.5831 18.5402 26.5466 18.5976 26.5217C18.6551 26.4968 18.7171 26.484 18.7797 26.4842H20.5662C20.6728 26.4837 20.7762 26.5208 20.8582 26.5889C20.9403 26.657 20.9957 26.7518 21.0149 26.8567C21.0432 27.102 21.1411 27.3341 21.2972 27.5256C21.3711 27.5916 21.458 27.6415 21.5522 27.6721C21.6465 27.7027 21.7461 27.7134 21.8447 27.7034C21.9676 27.7155 22.0915 27.6959 22.2046 27.6465C22.3178 27.5971 22.4164 27.5195 22.491 27.4211C22.674 27.1556 22.7652 26.8374 22.7506 26.5152C22.7624 26.1896 22.6758 25.868 22.5023 25.5923C22.4305 25.493 22.3336 25.4145 22.2216 25.3649C22.1095 25.3153 21.9862 25.2964 21.8644 25.3101C21.7229 25.3065 21.5817 25.3265 21.4468 25.3694C21.2828 25.4284 21.1482 25.5488 21.0714 25.7052C21.0311 25.7825 20.9696 25.8467 20.8941 25.8902C20.8186 25.9337 20.7323 25.9547 20.6452 25.9507L18.8587 25.8774C18.7384 25.8708 18.6256 25.817 18.5447 25.7277C18.4639 25.6384 18.4215 25.5208 18.4269 25.4004L18.7712 20.3655C18.7798 20.2507 18.8313 20.1433 18.9155 20.0648C18.9998 19.9863 19.1105 19.9425 19.2256 19.9421H24.1223C24.2428 19.9421 24.3583 19.99 24.4436 20.0752C24.5288 20.1604 24.5766 20.276 24.5766 20.3965V21.9177C24.5766 22.0385 24.5289 22.1544 24.4437 22.24C24.3586 22.3257 24.243 22.3742 24.1223 22.3749H21.2548L21.1956 23.1115C21.5415 22.9986 21.9042 22.9451 22.268 22.9535C23.1127 22.9367 23.9315 23.246 24.5541 23.8171C25.2117 24.4126 25.5447 25.2706 25.5447 26.3572C25.5508 27.285 25.2278 28.185 24.6331 28.8972C23.9896 29.6818 23.0583 30.0741 21.8447 30.0741ZM19.5869 29.0722C20.2264 29.5821 21.0273 29.8464 21.8447 29.8173C22.9736 29.8173 23.8457 29.4588 24.4242 28.7504C24.9784 28.0811 25.2783 27.2374 25.2709 26.3684C25.2709 25.3468 24.9661 24.5509 24.365 24.0062C23.7935 23.4773 23.041 23.1875 22.2624 23.1962C21.9154 23.1876 21.5695 23.2401 21.2407 23.3514L21.0996 23.4135L20.8964 23.5095L21.0121 22.0984H24.1166C24.1693 22.0976 24.2195 22.0762 24.2565 22.0387C24.2935 22.0012 24.3142 21.9506 24.3142 21.898V20.3824C24.3134 20.3302 24.2924 20.2804 24.2555 20.2435C24.2186 20.2066 24.1688 20.1856 24.1166 20.1849H19.2256C19.1756 20.1847 19.1274 20.2036 19.0907 20.2376C19.054 20.2717 19.0316 20.3184 19.0281 20.3683L18.6838 25.4004C18.6814 25.4538 18.7003 25.506 18.7362 25.5457C18.7722 25.5853 18.8223 25.6092 18.8757 25.6121L20.665 25.6855C20.7028 25.6904 20.7411 25.6829 20.7742 25.664C20.8073 25.6452 20.8334 25.616 20.8484 25.581C20.9548 25.3651 21.141 25.1991 21.3677 25.1182C21.53 25.0664 21.6998 25.0416 21.8701 25.0448C22.0333 25.0322 22.197 25.062 22.3453 25.1312C22.4936 25.2004 22.6216 25.3068 22.7168 25.4399C22.9156 25.7592 23.014 26.1309 22.999 26.5067C23.0138 26.8835 22.9058 27.2549 22.6914 27.5651C22.5932 27.6947 22.4645 27.798 22.3169 27.8659C22.1692 27.9339 22.007 27.9643 21.8447 27.9546C21.7112 27.9653 21.577 27.948 21.4506 27.9038C21.3242 27.8596 21.2085 27.7894 21.1109 27.6977C20.9179 27.4713 20.7944 27.194 20.7553 26.899C20.7473 26.8532 20.7234 26.8116 20.6878 26.7817C20.6522 26.7517 20.6071 26.7353 20.5606 26.7353H18.7797C18.7502 26.7359 18.7212 26.743 18.6949 26.7562C18.6685 26.7693 18.6454 26.7883 18.6273 26.8115C18.6078 26.8315 18.5929 26.8555 18.5837 26.8818C18.5744 26.9081 18.571 26.9362 18.5737 26.9639C18.5848 27.3667 18.6793 27.7627 18.8512 28.1271C19.0232 28.4914 19.2689 28.8161 19.5728 29.0806L19.5869 29.0722ZM21.8447 29.4193C21.1189 29.4521 20.4059 29.2205 19.8381 28.7674C19.3932 28.3918 19.1028 27.8651 19.0224 27.2885L18.997 27.1389H20.4082L20.4336 27.2321C20.5046 27.5093 20.6422 27.765 20.8343 27.9771C20.9685 28.1085 21.1288 28.2103 21.3048 28.276C21.4807 28.3416 21.6685 28.3696 21.856 28.3581C22.0831 28.3685 22.3092 28.3224 22.5141 28.2238C22.719 28.1253 22.8963 27.9775 23.03 27.7937C23.2969 27.4206 23.4356 26.971 23.4252 26.5124C23.438 26.0558 23.312 25.6061 23.0639 25.2226C22.9326 25.0348 22.755 24.8842 22.5483 24.7853C22.3416 24.6864 22.1128 24.6426 21.8842 24.6581C21.6687 24.6553 21.4542 24.6877 21.2492 24.7541C20.9887 24.8406 20.7624 25.0076 20.6029 25.2311L20.5634 25.2903L19.1015 25.2282L19.4175 20.5828H23.9332V21.7117H20.8371C20.787 21.7122 20.7388 21.7311 20.7018 21.765C20.6648 21.7989 20.6416 21.8452 20.6368 21.8951L20.4731 23.8905C20.4712 23.9272 20.4792 23.9638 20.496 23.9965C20.5129 24.0292 20.538 24.0569 20.569 24.0768C20.6004 24.0975 20.6372 24.1086 20.6749 24.1086C20.7125 24.1086 20.7493 24.0975 20.7807 24.0768C20.9717 23.9448 21.1749 23.8314 21.3875 23.7381C21.8507 23.59 22.3444 23.5642 22.8206 23.6631C23.2968 23.762 23.7393 23.9823 24.1053 24.3025C24.6246 24.7739 24.8786 25.4484 24.8786 26.3684C24.8891 27.1494 24.6175 27.908 24.1138 28.5049C23.6086 29.1173 22.8607 29.4193 21.8447 29.4193V29.4193ZM19.3047 27.3957C19.3956 27.8547 19.6406 28.2689 19.9989 28.5698C20.5215 28.9834 21.1762 29.1939 21.8419 29.1625C22.7817 29.1625 23.459 28.8803 23.9134 28.3356C24.3778 27.7829 24.6282 27.0818 24.619 26.36C24.619 25.5133 24.3932 24.9037 23.9275 24.486C23.4784 24.0632 22.882 23.8323 22.2652 23.8425C21.9971 23.835 21.7297 23.8741 21.475 23.9582C21.2769 24.0436 21.0878 24.1486 20.9105 24.2715C20.8389 24.3175 20.7559 24.3425 20.6707 24.3439C20.5856 24.3452 20.5019 24.3227 20.4288 24.279C20.3558 24.2353 20.2964 24.1721 20.2573 24.0965C20.2183 24.0209 20.2011 23.9358 20.2078 23.851L20.3686 21.8585C20.382 21.7442 20.4373 21.6391 20.5239 21.5634C20.6105 21.4878 20.7222 21.4471 20.8371 21.4492H23.6594V20.8396H19.6518L19.3696 24.9827L20.4307 25.0279C20.6135 24.7863 20.864 24.6045 21.1504 24.5057C21.3826 24.4296 21.6258 24.3924 21.8701 24.3957C22.1417 24.3794 22.4129 24.4337 22.6572 24.5534C22.9015 24.6731 23.1107 24.8541 23.2643 25.0787C23.5412 25.5046 23.6819 26.0046 23.6679 26.5124C23.684 27.0307 23.5304 27.5401 23.2304 27.963C23.0712 28.1762 22.8621 28.347 22.6215 28.4607C22.3809 28.5743 22.1161 28.6273 21.8503 28.615C21.628 28.627 21.4056 28.5923 21.1976 28.5131C20.9895 28.4338 20.8004 28.3118 20.6424 28.1549C20.4431 27.9377 20.2955 27.6781 20.2106 27.3957H19.3047Z" fill="#0974D6"/>
<path d="M29.0691 10.9363H28.2648C28.197 10.9363 28.1298 10.9498 28.0672 10.9758V8.28903C28.0672 7.86014 27.8969 7.44881 27.5936 7.14553C27.2903 6.84225 26.879 6.67188 26.4501 6.67188C26.0212 6.67188 25.6099 6.84225 25.3066 7.14553C25.0033 7.44881 24.8329 7.86014 24.8329 8.28903V10.9448C24.8038 10.942 24.7745 10.942 24.7454 10.9448H13.6511C13.6101 10.9447 13.5692 10.9504 13.5297 10.9617V8.28903C13.5297 7.86014 13.3594 7.44881 13.0561 7.14553C12.7528 6.84225 12.3415 6.67188 11.9126 6.67188C11.4837 6.67188 11.0724 6.84225 10.7691 7.14553C10.4658 7.44881 10.2954 7.86014 10.2954 8.28903V10.9645C10.2428 10.9463 10.1875 10.9367 10.1317 10.9363H9.32739C8.58884 10.9371 7.88075 11.2308 7.35851 11.753C6.83628 12.2753 6.54256 12.9833 6.54181 13.7219V31.474C6.54255 32.2128 6.83618 32.9212 7.35834 33.4438C7.88049 33.9665 8.58858 34.2609 9.32739 34.2624H29.0833C29.8221 34.2609 30.5302 33.9665 31.0523 33.4438C31.5745 32.9212 31.8681 32.2128 31.8688 31.474V13.7219C31.8685 13.355 31.7957 12.9918 31.6547 12.6531C31.5137 12.3144 31.3072 12.0068 31.0471 11.748C30.7871 11.4893 30.4785 11.2843 30.139 11.1451C29.7996 11.0058 29.436 10.9348 29.0691 10.9363V10.9363ZM25.7389 8.28903C25.7606 8.11727 25.8443 7.95935 25.9742 7.84488C26.1041 7.73041 26.2713 7.66725 26.4444 7.66725C26.6176 7.66725 26.7848 7.73041 26.9147 7.84488C27.0446 7.95935 27.1282 8.11727 27.15 8.28903V13.1546C27.1627 13.2548 27.1539 13.3565 27.1243 13.453C27.0946 13.5495 27.0448 13.6385 26.978 13.7143C26.9113 13.79 26.8292 13.8507 26.7372 13.8922C26.6452 13.9338 26.5454 13.9553 26.4444 13.9553C26.3435 13.9553 26.2437 13.9338 26.1517 13.8922C26.0597 13.8507 25.9776 13.79 25.9109 13.7143C25.8441 13.6385 25.7943 13.5495 25.7646 13.453C25.735 13.3565 25.7262 13.2548 25.7389 13.1546V8.28903ZM11.1986 8.28903C11.1859 8.18889 11.1946 8.08719 11.2243 7.99069C11.2539 7.8942 11.3038 7.80512 11.3705 7.72938C11.4373 7.65365 11.5194 7.59299 11.6114 7.55144C11.7034 7.50989 11.8032 7.4884 11.9041 7.4884C12.0051 7.4884 12.1049 7.50989 12.1969 7.55144C12.2889 7.59299 12.371 7.65365 12.4377 7.72938C12.5044 7.80512 12.5543 7.8942 12.584 7.99069C12.6136 8.08719 12.6224 8.18889 12.6097 8.28903V13.1546C12.6224 13.2548 12.6136 13.3565 12.584 13.453C12.5543 13.5495 12.5044 13.6385 12.4377 13.7143C12.371 13.79 12.2889 13.8507 12.1969 13.8922C12.1049 13.9338 12.0051 13.9553 11.9041 13.9553C11.8032 13.9553 11.7034 13.9338 11.6114 13.8922C11.5194 13.8507 11.4373 13.79 11.3705 13.7143C11.3038 13.6385 11.2539 13.5495 11.2243 13.453C11.1946 13.3565 11.1859 13.2548 11.1986 13.1546V8.28903ZM30.8726 31.474C30.8718 31.952 30.6816 32.4103 30.3435 32.7484C30.0055 33.0864 29.5472 33.2766 29.0691 33.2774H9.31328C8.83521 33.2766 8.37693 33.0864 8.03888 32.7484C7.70084 32.4103 7.51059 31.952 7.50985 31.474V13.7219C7.51059 13.2438 7.70084 12.7856 8.03888 12.4475C8.37693 12.1095 8.83521 11.9192 9.31328 11.9185H9.62655V12.8809C9.62655 13.4797 9.86442 14.054 10.2878 14.4774C10.7113 14.9008 11.2856 15.1387 11.8844 15.1387C12.4832 15.1387 13.0575 14.9008 13.4809 14.4774C13.9043 14.054 14.1422 13.4797 14.1422 12.8809V11.9185H24.2713V12.8809C24.2713 13.4797 24.5092 14.054 24.9326 14.4774C25.356 14.9008 25.9303 15.1387 26.5291 15.1387C27.1279 15.1387 27.7022 14.9008 28.1256 14.4774C28.549 14.054 28.7869 13.4797 28.7869 12.8809V11.9185H29.0691C29.5472 11.9192 30.0055 12.1095 30.3435 12.4475C30.6816 12.7856 30.8718 13.2438 30.8726 13.7219V31.474Z" fill="#0974D6"/>
<path d="M29.0691 34.3894H9.31318C8.54046 34.3887 7.79964 34.0812 7.25351 33.5345C6.70737 32.9879 6.4006 32.2468 6.4006 31.474V13.722C6.4006 13.3382 6.47638 12.9581 6.6236 12.6037C6.77082 12.2492 6.98658 11.9273 7.25849 11.6565C7.53041 11.3856 7.85314 11.1711 8.20815 11.0252C8.56317 10.8794 8.94349 10.8051 9.3273 10.8066H10.174V8.28911C10.1645 8.05397 10.2027 7.81935 10.2861 7.59932C10.3696 7.37929 10.4966 7.17839 10.6597 7.00868C10.8227 6.83897 11.0183 6.70394 11.2348 6.6117C11.4513 6.51947 11.6842 6.47192 11.9195 6.47192C12.1549 6.47192 12.3878 6.51947 12.6043 6.6117C12.8208 6.70394 13.0164 6.83897 13.1794 7.00868C13.3425 7.17839 13.4695 7.37929 13.553 7.59932C13.6364 7.81935 13.6746 8.05397 13.6651 8.28911V10.8066H24.7087V8.28911C24.6992 8.05397 24.7373 7.81935 24.8208 7.59932C24.9043 7.37929 25.0313 7.17839 25.1943 7.00868C25.3574 6.83897 25.553 6.70394 25.7695 6.6117C25.986 6.51947 26.2189 6.47192 26.4542 6.47192C26.6896 6.47192 26.9225 6.51947 27.139 6.6117C27.3555 6.70394 27.5511 6.83897 27.7141 7.00868C27.8771 7.17839 28.0042 7.37929 28.0876 7.59932C28.1711 7.81935 28.2093 8.05397 28.1998 8.28911V10.8094H29.0691C29.8418 10.8101 30.5826 11.1176 31.1287 11.6643C31.6749 12.211 31.9816 12.9521 31.9816 13.7248V31.4769C31.9809 32.2491 31.6738 32.9895 31.1277 33.5355C30.5817 34.0816 29.8413 34.3887 29.0691 34.3894V34.3894ZM9.31318 11.0634C8.6088 11.0649 7.93374 11.3456 7.43594 11.8439C6.93813 12.3422 6.65818 13.0176 6.65743 13.722V31.474C6.65743 32.1786 6.93714 32.8544 7.43511 33.3529C7.93308 33.8514 8.60858 34.1319 9.31318 34.1326H29.0691C29.7739 34.1319 30.4497 33.8515 30.9481 33.3531C31.4465 32.8547 31.7269 32.1789 31.7276 31.474V13.722C31.7261 13.0173 31.4456 12.342 30.9473 11.8437C30.4491 11.3455 29.7737 11.0649 29.0691 11.0634H28.2647C28.2151 11.0636 28.1661 11.0742 28.1208 11.0944L27.9402 11.1735V8.28911C27.9489 8.08815 27.9169 7.8875 27.846 7.69925C27.7751 7.511 27.6669 7.33905 27.5278 7.19375C27.3887 7.04846 27.2216 6.93283 27.0366 6.85384C26.8516 6.77484 26.6526 6.73412 26.4514 6.73412C26.2503 6.73412 26.0512 6.77484 25.8662 6.85384C25.6812 6.93283 25.5141 7.04846 25.375 7.19375C25.2359 7.33905 25.1277 7.511 25.0568 7.69925C24.9859 7.8875 24.9539 8.08815 24.9627 8.28911V11.1114L24.8103 11.086C24.7887 11.083 24.7669 11.083 24.7453 11.086H13.651C13.621 11.0827 13.5907 11.0827 13.5607 11.086L13.4027 11.1255V8.30322C13.4114 8.10226 13.3794 7.90161 13.3085 7.71336C13.2376 7.52511 13.1294 7.35316 12.9903 7.20786C12.8512 7.06257 12.6841 6.94694 12.4991 6.86795C12.3141 6.78895 12.1151 6.74823 11.9139 6.74823C11.7128 6.74823 11.5137 6.78895 11.3287 6.86795C11.1437 6.94694 10.9766 7.06257 10.8375 7.20786C10.6984 7.35316 10.5902 7.52511 10.5193 7.71336C10.4484 7.90161 10.4164 8.10226 10.4252 8.30322V11.1481L10.253 11.086C10.214 11.0719 10.1731 11.0643 10.1316 11.0634H9.31318ZM29.0691 33.4073H9.31318C8.80094 33.4065 8.30994 33.2025 7.94799 32.8401C7.58605 32.4776 7.38275 31.9863 7.38275 31.474V13.722C7.38275 13.2097 7.58605 12.7184 7.94799 12.356C8.30994 11.9935 8.80094 11.7895 9.31318 11.7887H9.75628V12.8809C9.73502 13.1719 9.77397 13.4641 9.87071 13.7394C9.96745 14.0146 10.1199 14.2669 10.3185 14.4806C10.5172 14.6943 10.7577 14.8647 11.0252 14.9813C11.2926 15.0978 11.5812 15.158 11.873 15.158C12.1647 15.158 12.4533 15.0978 12.7208 14.9813C12.9882 14.8647 13.2288 14.6943 13.4274 14.4806C13.6261 14.2669 13.7785 14.0146 13.8753 13.7394C13.972 13.4641 14.0109 13.1719 13.9897 12.8809V11.7887H24.3841V12.8809C24.4232 13.4156 24.6631 13.9157 25.0558 14.2807C25.4484 14.6457 25.9647 14.8486 26.5008 14.8486C27.0369 14.8486 27.5531 14.6457 27.9458 14.2807C28.3384 13.9157 28.5784 13.4156 28.6175 12.8809V11.7887H29.0691C29.5813 11.7895 30.0723 11.9935 30.4343 12.356C30.7962 12.7184 30.9995 13.2097 30.9995 13.722V31.474C30.9995 31.9863 30.7962 32.4776 30.4343 32.8401C30.0723 33.2025 29.5813 33.4065 29.0691 33.4073V33.4073ZM9.31318 12.0455C8.87043 12.0507 8.4473 12.2291 8.13446 12.5424C7.82163 12.8558 7.64398 13.2792 7.63958 13.722V31.474C7.63958 31.9182 7.81581 32.3441 8.1296 32.6585C8.44338 32.9728 8.86906 33.1497 9.31318 33.1505H29.0691C29.5132 33.1497 29.9389 32.9728 30.2526 32.6585C30.5664 32.3441 30.7427 31.9182 30.7427 31.474V13.722C30.7383 13.2792 30.5606 12.8558 30.2478 12.5424C29.9349 12.2291 29.5118 12.0507 29.0691 12.0455H28.8828V12.8922C28.8828 13.5232 28.6321 14.1284 28.1859 14.5746C27.7398 15.0207 27.1346 15.2714 26.5036 15.2714C25.8726 15.2714 25.2675 15.0207 24.8213 14.5746C24.3751 14.1284 24.1244 13.5232 24.1244 12.8922V12.0455H14.2719V12.8922C14.2719 13.5232 14.0212 14.1284 13.5751 14.5746C13.1289 15.0207 12.5237 15.2714 11.8927 15.2714C11.2617 15.2714 10.6566 15.0207 10.2104 14.5746C9.76423 14.1284 9.51357 13.5232 9.51357 12.8922V12.0455H9.31318ZM26.4387 13.9957C26.2142 13.9957 25.9988 13.9065 25.84 13.7477C25.6812 13.589 25.592 13.3736 25.592 13.1491V8.28911C25.5765 8.16972 25.5866 8.04838 25.6217 7.93321C25.6568 7.81805 25.7161 7.71169 25.7956 7.62123C25.875 7.53078 25.9729 7.45832 26.0825 7.40867C26.1922 7.35903 26.3113 7.33335 26.4316 7.33335C26.552 7.33335 26.6711 7.35903 26.7808 7.40867C26.8904 7.45832 26.9883 7.53078 27.0677 7.62123C27.1472 7.71169 27.2065 7.81805 27.2416 7.93321C27.2767 8.04838 27.2868 8.16972 27.2713 8.28911V13.1547C27.2699 13.3735 27.184 13.5832 27.0314 13.74C26.8788 13.8968 26.6715 13.9884 26.4528 13.9957H26.4387ZM26.4387 7.7049C26.2843 7.70565 26.1364 7.76753 26.0274 7.87701C25.9185 7.98649 25.8573 8.13466 25.8573 8.28911V13.1547C25.8518 13.2346 25.8627 13.3149 25.8895 13.3904C25.9162 13.466 25.9582 13.5352 26.0129 13.5938C26.0676 13.6524 26.1337 13.6991 26.2072 13.7311C26.2807 13.763 26.36 13.7795 26.4401 13.7795C26.5203 13.7795 26.5995 13.763 26.673 13.7311C26.7465 13.6991 26.8127 13.6524 26.8673 13.5938C26.922 13.5352 26.964 13.466 26.9908 13.3904C27.0175 13.3149 27.0285 13.2346 27.0229 13.1547V8.28911C27.023 8.13658 26.9633 7.99009 26.8568 7.88092C26.7503 7.77176 26.6053 7.70859 26.4528 7.7049H26.4387ZM11.9125 13.9957C11.6879 13.9957 11.4726 13.9065 11.3138 13.7477C11.155 13.589 11.0658 13.3736 11.0658 13.1491V8.28911C11.0503 8.16972 11.0604 8.04838 11.0955 7.93321C11.1306 7.81805 11.1899 7.71169 11.2693 7.62123C11.3488 7.53078 11.4466 7.45832 11.5563 7.40867C11.666 7.35903 11.785 7.33335 11.9054 7.33335C12.0258 7.33335 12.1448 7.35903 12.2545 7.40867C12.3642 7.45832 12.4621 7.53078 12.5415 7.62123C12.621 7.71169 12.6802 7.81805 12.7153 7.93321C12.7504 8.04838 12.7606 8.16972 12.7451 8.28911V13.1547C12.7436 13.3759 12.6557 13.5877 12.5001 13.7448C12.3445 13.902 12.1336 13.9921 11.9125 13.9957V13.9957ZM11.9125 7.7049C11.758 7.70565 11.6102 7.76753 11.5012 7.87701C11.3923 7.98649 11.3311 8.13466 11.3311 8.28911V13.1547C11.3255 13.2346 11.3365 13.3149 11.3632 13.3904C11.39 13.466 11.432 13.5352 11.4867 13.5938C11.5414 13.6524 11.6075 13.6991 11.681 13.7311C11.7545 13.763 11.8338 13.7795 11.9139 13.7795C11.994 13.7795 12.0733 13.763 12.1468 13.7311C12.2203 13.6991 12.2864 13.6524 12.3411 13.5938C12.3958 13.5352 12.4378 13.466 12.4646 13.3904C12.4913 13.3149 12.5023 13.2346 12.4967 13.1547V8.28911C12.4967 8.13417 12.4352 7.98557 12.3256 7.87601C12.216 7.76645 12.0674 7.7049 11.9125 7.7049V7.7049Z" fill="#0974D6"/>
<path d="M29.4448 18.0117H9.03131C8.96659 18.0114 8.90242 18.0238 8.84252 18.0483C8.78261 18.0728 8.72814 18.1089 8.68224 18.1546C8.63634 18.2002 8.59992 18.2545 8.57506 18.3142C8.55021 18.374 8.53741 18.4381 8.53741 18.5028V30.5623C8.53741 31.0114 8.71582 31.4422 9.03339 31.7597C9.35095 32.0773 9.78167 32.2557 10.2308 32.2557H28.2397C28.6888 32.2557 29.1195 32.0773 29.4371 31.7597C29.7546 31.4422 29.933 31.0114 29.933 30.5623V18.5028C29.933 18.373 29.8817 18.2486 29.7902 18.1566C29.6987 18.0645 29.5745 18.0125 29.4448 18.0117V18.0117ZM28.9537 30.5623C28.9537 30.7502 28.8791 30.9304 28.7462 31.0632C28.6134 31.1961 28.4332 31.2707 28.2453 31.2707H10.2364C10.049 31.27 9.86957 31.195 9.73734 31.0622C9.6051 30.9295 9.53085 30.7497 9.53085 30.5623V18.9911H28.9537V30.5623Z" fill="#0974D6"/>
<path d="M28.2451 32.3826H10.2362C9.75388 32.3819 9.29159 32.1898 8.95081 31.8485C8.61004 31.5072 8.41864 31.0446 8.41864 30.5623V18.5027C8.41864 18.4212 8.4347 18.3405 8.4659 18.2651C8.49711 18.1898 8.54284 18.1213 8.6005 18.0637C8.65815 18.006 8.7266 17.9603 8.80193 17.9291C8.87726 17.8979 8.958 17.8818 9.03954 17.8818H29.4445C29.609 17.8826 29.7665 17.9482 29.8828 18.0645C29.999 18.1808 30.0647 18.3383 30.0654 18.5027V30.5623C30.0654 30.8013 30.0183 31.0381 29.9269 31.2589C29.8354 31.4798 29.7013 31.6804 29.5323 31.8495C29.3632 32.0185 29.1625 32.1526 28.9417 32.2441C28.7208 32.3356 28.4841 32.3826 28.2451 32.3826V32.3826ZM9.03107 18.1387C8.93451 18.1387 8.84191 18.177 8.77363 18.2453C8.70536 18.3136 8.667 18.4062 8.667 18.5027V30.5623C8.667 30.9765 8.83134 31.3737 9.12395 31.6669C9.41656 31.96 9.81353 32.1251 10.2277 32.1258H28.2366C28.651 32.1251 29.0483 31.9601 29.3414 31.6671C29.6344 31.374 29.7994 30.9767 29.8001 30.5623V18.5027C29.8001 18.4062 29.7618 18.3136 29.6935 18.2453C29.6252 18.177 29.5326 18.1387 29.4361 18.1387H9.03107ZM28.2366 31.4033H10.2362C10.0116 31.4033 9.79627 31.3141 9.63749 31.1553C9.4787 30.9966 9.3895 30.7812 9.3895 30.5566V18.8668H29.072V30.5623C29.0699 30.782 28.9824 30.9923 28.8281 31.1487C28.6738 31.3051 28.4647 31.3954 28.2451 31.4005L28.2366 31.4033ZM9.65762 19.1236V30.5623C9.65761 30.716 9.71848 30.8634 9.8269 30.9724C9.93532 31.0813 10.0825 31.1429 10.2362 31.1437H28.2451C28.3993 31.1437 28.5471 31.0824 28.6562 30.9734C28.7652 30.8644 28.8265 30.7165 28.8265 30.5623V19.1236H9.65762Z" fill="#0974D6"/>
</svg>
