<svg width="40" height="40" viewBox="0 0 40 40" fill="none" xmlns="http://www.w3.org/2000/svg">
<path d="M33.2189 12.8209C29.047 10.0865 24.3907 8.15685 19.3673 7.08653L19.8517 6.78185C20.2579 6.52403 20.3829 5.98497 20.1251 5.57872C19.8673 5.17247 19.3282 5.04747 18.922 5.30528L16.6642 6.72716C16.4688 6.85216 16.3282 7.04747 16.2813 7.27403C16.2267 7.5006 16.2735 7.73497 16.3907 7.93028L17.8673 10.2662C18.0313 10.5318 18.3126 10.6725 18.6017 10.6725C18.7579 10.6725 18.922 10.6256 19.0626 10.5397C19.4688 10.2818 19.5938 9.74278 19.336 9.33653L18.9845 8.78185C23.797 9.8131 28.2579 11.6568 32.2501 14.274C32.3985 14.3678 32.5626 14.4147 32.7267 14.4147C33.0079 14.4147 33.2892 14.274 33.4532 14.024C33.7345 13.6256 33.6173 13.0865 33.2189 12.8209Z" fill="#0974D6"/>
<path d="M27.3047 17.8209C26.6719 16.3912 25.5 15.649 24.2422 15.8912C23.875 15.9615 23.5391 16.1021 23.2422 16.3053C23.0391 15.9459 22.7578 15.6334 22.4063 15.3912C21.8125 14.9928 21.1094 14.8443 20.4063 14.9771C19.9844 15.0553 19.6016 15.235 19.2656 15.4928C19.0938 15.274 18.8906 15.0709 18.6484 14.9146C18.0547 14.5162 17.3438 14.3678 16.6484 14.5006C16.3359 14.5631 16.0391 14.6803 15.7656 14.8365L15.1563 11.649C15.0234 10.9459 14.625 10.3443 14.0313 9.9459C13.4375 9.54746 12.7266 9.39902 12.0313 9.53183C11.3281 9.66464 10.7266 10.0631 10.3281 10.6568C9.9297 11.2506 9.78126 11.9615 9.91407 12.6568L12.0156 23.5943L10.75 22.1334C10.2734 21.5709 9.62501 21.235 8.92189 21.1959C8.23439 21.1568 7.56251 21.4068 7.06251 21.8834C6.21876 22.6881 6.17189 24.11 6.93751 25.5162C6.93751 25.524 6.94532 25.5318 6.94532 25.5318C7.10157 25.8053 10.9063 32.3131 14.3984 34.6725C14.5469 34.774 14.7188 34.8209 14.8828 34.8209C15.1641 34.8209 15.4375 34.6881 15.6016 34.4381C15.875 34.0396 15.7656 33.5006 15.3672 33.2271C12.2578 31.1256 8.60939 24.9303 8.45314 24.6646C8.10939 24.0318 8.01564 23.36 8.25001 23.1412C8.40626 22.9928 8.60939 22.9146 8.81251 22.9303C9.03126 22.9459 9.23439 23.0553 9.41407 23.2584L12.8125 27.1959C13.0703 27.4928 13.5 27.5787 13.8516 27.4068C14.2031 27.235 14.3984 26.8443 14.3281 26.4615L11.6172 12.3287C11.5703 12.0865 11.625 11.8365 11.7578 11.6334C11.8984 11.4303 12.1094 11.2896 12.3516 11.2428C12.5938 11.1959 12.8438 11.2506 13.0469 11.3834C13.25 11.524 13.3906 11.735 13.4375 11.9771L14.5234 17.6256L15.3203 21.774C15.4141 22.2428 15.8672 22.5553 16.3438 22.4615C16.8125 22.3678 17.125 21.9146 17.0313 21.4381L16.2344 17.2896C16.1875 17.0475 16.2422 16.7975 16.375 16.5943C16.5156 16.3912 16.7266 16.2506 16.9688 16.2037C17.2109 16.1568 17.4609 16.2115 17.6641 16.3443C17.8672 16.485 18.0078 16.6959 18.0547 16.9381L18.9141 21.399C18.9922 21.8131 19.3594 22.11 19.7656 22.11C19.8203 22.11 19.875 22.1021 19.9297 22.0943C20.3984 22.0006 20.7109 21.5475 20.6172 21.0709L19.9844 17.7584C19.9375 17.5162 19.9922 17.2662 20.125 17.0631C20.2656 16.86 20.4766 16.7193 20.7188 16.6725C20.9609 16.6256 21.2109 16.6803 21.4141 16.8131C21.6172 16.9537 21.7578 17.1646 21.8047 17.4068L22.0234 18.5475C22.0313 18.6021 22.0469 18.6568 22.0703 18.7037C22.0781 18.7975 22.0938 18.8912 22.1094 18.985L22.4375 20.7115C22.5313 21.1803 22.9844 21.4928 23.4609 21.399C23.9297 21.3053 24.2422 20.8521 24.1484 20.3756L23.8203 18.649C23.7266 18.149 24.0547 17.6568 24.5547 17.5631C25.125 17.4537 25.5078 18.0865 25.6719 18.4225C25.8828 19.2506 27.7656 26.9537 26.9922 30.8131C26.8984 31.2818 27.2031 31.7428 27.6719 31.8365C27.7266 31.8443 27.7891 31.8521 27.8438 31.8521C28.25 31.8521 28.6172 31.5631 28.6953 31.149C29.5859 26.7037 27.4297 18.2662 27.3359 17.9146C27.3359 17.9068 27.3203 17.8678 27.3047 17.8209Z" fill="#0974D6"/>
</svg>
